<?xml version="1.0" encoding="UTF-8"?>
<svg width="23px" height="23px" viewBox="0 0 23 23" version="1.1" xmlns="http://www.w3.org/2000/svg" xmlns:xlink="http://www.w3.org/1999/xlink">
    <!-- Generator: Sketch 43.1 (39012) - http://www.bohemiancoding.com/sketch -->
    <title>Combined Shape</title>
    <desc>Created with Sketch.</desc>
    <defs></defs>
    <g id="Page-1" stroke="none" stroke-width="1" fill="none" fill-rule="evenodd">
        <g id="Mobile-Portrait" transform="translate(-327.000000, -607.000000)" fill="#1E1F3D">
            <path d="M338.5,630 C332.148725,630 327,624.851275 327,618.5 C327,612.148725 332.148725,607 338.5,607 C344.851275,607 350,612.148725 350,618.5 C350,624.851275 344.851275,630 338.5,630 Z M337.344651,625.186047 L340.175256,625.186047 L340.175256,615.635163 L337.344651,615.635163 L337.344651,625.186047 Z M338.750326,614.229488 C339.238142,614.229488 339.632882,614.09149 339.934558,613.815488 C340.236234,613.539487 340.38707,613.183258 340.38707,612.746791 C340.38707,612.310323 340.236234,611.957304 339.934558,611.687721 C339.632882,611.418138 339.238142,611.283349 338.750326,611.283349 C338.275346,611.283349 337.883815,611.418138 337.575721,611.687721 C337.267626,611.957304 337.113581,612.310323 337.113581,612.746791 C337.113581,613.183258 337.267626,613.539487 337.575721,613.815488 C337.883815,614.09149 338.275346,614.229488 338.750326,614.229488 Z" id="Combined-Shape"></path>
        </g>
    </g>
</svg>