<?xml version="1.0" encoding="UTF-8"?>
<svg width="90px" height="41px" viewBox="0 0 90 41" version="1.1" xmlns="http://www.w3.org/2000/svg" xmlns:xlink="http://www.w3.org/1999/xlink">
    <!-- Generator: Sketch 43.1 (39012) - http://www.bohemiancoding.com/sketch -->
    <title>logo</title>
    <desc>Created with Sketch.</desc>
    <defs></defs>
    <g id="Page-1" stroke="none" stroke-width="1" fill="none" fill-rule="evenodd">
        <g id="Mobile-Portrait" transform="translate(-22.000000, -22.000000)" fill="#FFFFFF">
            <g id="logo" transform="translate(22.000000, 22.000000)">
                <path d="M11.3984375,4.6015625 L9.18359375,5.9140625 C8.76952918,5.19530891 8.37500187,4.72656359 8,4.5078125 C7.60937305,4.25781125 7.10547184,4.1328125 6.48828125,4.1328125 C5.73046496,4.1328125 5.101565,4.3476541 4.6015625,4.77734375 C4.10156,5.19922086 3.8515625,5.73046555 3.8515625,6.37109375 C3.8515625,7.25391066 4.50780594,7.96484105 5.8203125,8.50390625 L7.625,9.2421875 C9.09375734,9.83594047 10.1679654,10.5605426 10.8476562,11.4160156 C11.5273471,12.2714887 11.8671875,13.3203063 11.8671875,14.5625 C11.8671875,16.2265708 11.3125055,17.6015571 10.203125,18.6875 C9.08593191,19.7812555 7.69922703,20.328125 6.04296875,20.328125 C4.4726484,20.328125 3.17578637,19.8632859 2.15234375,18.9335938 C1.14452621,18.0039016 0.51562625,16.6953209 0.265625,15.0078125 L3.03125,14.3984375 C3.15625062,15.4609428 3.37499844,16.1953105 3.6875,16.6015625 C4.25000281,17.3828164 5.07030711,17.7734375 6.1484375,17.7734375 C7.00000426,17.7734375 7.70702844,17.4882841 8.26953125,16.9179688 C8.83203406,16.3476534 9.11328125,15.6250044 9.11328125,14.75 C9.11328125,14.3984357 9.06445361,14.0761733 8.96679687,13.7832031 C8.86914014,13.4902329 8.71679791,13.2207044 8.50976562,12.9746094 C8.30273334,12.7285144 8.03515789,12.4980479 7.70703125,12.2832031 C7.37890461,12.0683583 6.98828352,11.8632822 6.53515625,11.6679688 L4.7890625,10.9414062 C2.31248762,9.89452602 1.07421875,8.36329133 1.07421875,6.34765625 C1.07421875,4.98827445 1.5937448,3.85156707 2.6328125,2.9375 C3.6718802,2.01562039 4.96483602,1.5546875 6.51171875,1.5546875 C8.59766668,1.5546875 10.2265566,2.57030234 11.3984375,4.6015625 Z M17.2929688,0.20703125 L17.2929688,20 L14.65625,20 L14.65625,0.20703125 L17.2929688,0.20703125 Z" id="Sleepeey"></path>
                <path d="M71.9726562,16.9140625 L63.7929688,16.9140625 C63.8632816,17.8515672 64.1679661,18.5976535 64.7070312,19.1523438 C65.2460964,19.6992215 65.9374958,19.9726562 66.78125,19.9726562 C67.4375033,19.9726562 67.9804666,19.8164078 68.4101562,19.5039062 C68.8320334,19.1914047 69.3124973,18.6132855 69.8515625,17.7695312 L72.078125,19.0117188 C71.7343733,19.5976592 71.3710957,20.0996073 70.9882812,20.5175781 C70.6054668,20.935549 70.1953147,21.2792955 69.7578125,21.5488281 C69.3203103,21.8183607 68.8476588,22.0156244 68.3398438,22.140625 C67.8320287,22.2656256 67.281253,22.328125 66.6875,22.328125 C64.9843665,22.328125 63.6171927,21.7812555 62.5859375,20.6875 C61.5546823,19.585932 61.0390625,18.1250091 61.0390625,16.3046875 C61.0390625,14.499991 61.5390575,13.0390681 62.5390625,11.921875 C63.54688,10.820307 64.8828042,10.2695312 66.546875,10.2695312 C68.2265709,10.2695312 69.5546826,10.8046821 70.53125,11.875 C71.5000048,12.9375053 71.984375,14.4101468 71.984375,16.2929688 L71.9726562,16.9140625 Z M69.265625,14.7578125 C68.8984357,13.3515555 68.0117258,12.6484375 66.6054688,12.6484375 C66.2851546,12.6484375 65.9843764,12.6972651 65.703125,12.7949219 C65.4218736,12.8925786 65.1660168,13.0332022 64.9355469,13.2167969 C64.705077,13.4003915 64.5078133,13.6210925 64.34375,13.8789062 C64.1796867,14.13672 64.0546879,14.4296859 63.96875,14.7578125 L69.265625,14.7578125 Z" id="Combined-Shape" opacity="0.699999988" transform="translate(66.558594, 16.298828) rotate(22.000000) translate(-66.558594, -16.298828) "></path>
                <path d="M82.1346959,24.9069491 L75.0368846,24.9069491 C75.0978976,25.7204559 75.3622833,26.367862 75.8300497,26.8491868 C76.2978161,27.3237325 76.8977684,27.5610017 77.6299245,27.5610017 C78.1993793,27.5610017 78.6705282,27.4254193 79.0433855,27.1542504 C79.4094636,26.8830814 79.8263796,26.3814264 80.294146,25.6492703 L82.226215,26.7271614 C81.9279291,27.2356032 81.6127,27.6711617 81.280518,28.0338502 C80.9483361,28.3965386 80.5924322,28.69482 80.2127957,28.9287032 C79.8331592,29.1625864 79.4230223,29.3337592 78.9823728,29.4422268 C78.5417233,29.5506944 78.0637952,29.6049273 77.5485742,29.6049273 C76.0707036,29.6049273 74.8843573,29.1303888 73.9894998,28.1812976 C73.0946423,27.2254271 72.6472203,25.9577313 72.6472203,24.3781723 C72.6472203,22.8121717 73.0810841,21.5444759 73.9488247,20.575047 C74.8233445,19.6191765 75.9825743,19.1412484 77.4265488,19.1412484 C78.8840819,19.1412484 80.0365325,19.6056183 80.8839355,20.5343719 C81.7245592,21.4563462 82.1448647,22.7342107 82.1448647,24.3680035 L82.1346959,24.9069491 Z M79.7857068,23.0358928 C79.4670833,21.8156326 78.697653,21.2055116 77.4773928,21.2055116 C77.1994446,21.2055116 76.9384484,21.2478811 76.6943964,21.3326214 C76.4503443,21.4173617 76.2283281,21.5393859 76.028341,21.6986977 C75.8283539,21.8580094 75.6571811,22.0495196 75.5148174,22.273234 C75.3724537,22.4969483 75.2639878,22.7511654 75.1894163,23.0358928 L79.7857068,23.0358928 Z" id="Combined-Shape" opacity="0.300000012" transform="translate(77.436718, 24.373088) rotate(34.000000) translate(-77.436718, -24.373088) "></path>
                <polygon id="Path" opacity="0.200000003" transform="translate(82.265188, 37.148228) rotate(29.000000) translate(-82.265188, -37.148228) " points="81.4312054 37.4663052 78.03321 31.3142267 80.0580429 31.3142267 82.3699211 35.6586958 84.5266396 31.3142267 86.4971667 31.3142267 80.4769738 42.9822294 78.4831728 42.9822294"></polygon>
                <path d="M49.8242188,26.2109375 L47.1875,26.2109375 L47.1875,8.5859375 L49.8242188,8.5859375 L49.8242188,9.828125 C50.8632864,8.7890573 52.0429621,8.26953125 53.3632812,8.26953125 C54.9336016,8.26953125 56.2265574,8.84765047 57.2421875,10.0039062 C58.2734427,11.1523495 58.7890625,12.6015538 58.7890625,14.3515625 C58.7890625,16.0625086 58.2773489,17.4882755 57.2539062,18.6289062 C56.2382762,19.7617244 54.957039,20.328125 53.4101562,20.328125 C52.0742121,20.328125 50.8789115,19.7929741 49.8242188,18.7226562 L49.8242188,26.2109375 Z M56.09375,14.3632812 C56.09375,13.2695258 55.796878,12.3789097 55.203125,11.6914062 C54.6015595,10.9960903 53.8437546,10.6484375 52.9296875,10.6484375 C51.9609327,10.6484375 51.1757843,10.9843716 50.5742188,11.65625 C49.9726532,12.3281284 49.671875,13.210932 49.671875,14.3046875 C49.671875,15.3750054 49.9726532,16.257809 50.5742188,16.953125 C51.1679717,17.6328159 51.9492139,17.9726562 52.9179688,17.9726562 C53.8320358,17.9726562 54.5859345,17.6289097 55.1796875,16.9414062 C55.7890655,16.2539028 56.09375,15.3945364 56.09375,14.3632812 Z" id="Combined-Shape" opacity="0.800000012"></path>
                <path d="M31.0273438,14.9140625 L22.8476562,14.9140625 C22.9179691,15.8515672 23.2226536,16.5976535 23.7617188,17.1523438 C24.3007839,17.6992215 24.9921833,17.9726562 25.8359375,17.9726562 C26.4921908,17.9726562 27.0351541,17.8164078 27.4648438,17.5039062 C27.8867209,17.1914047 28.3671848,16.6132855 28.90625,15.7695312 L31.1328125,17.0117188 C30.7890608,17.5976592 30.4257832,18.0996073 30.0429688,18.5175781 C29.6601543,18.935549 29.2500022,19.2792955 28.8125,19.5488281 C28.3749978,19.8183607 27.9023463,20.0156244 27.3945312,20.140625 C26.8867162,20.2656256 26.3359405,20.328125 25.7421875,20.328125 C24.039054,20.328125 22.6718802,19.7812555 21.640625,18.6875 C20.6093698,17.585932 20.09375,16.1250091 20.09375,14.3046875 C20.09375,12.499991 20.593745,11.0390681 21.59375,9.921875 C22.6015675,8.82030699 23.9374917,8.26953125 25.6015625,8.26953125 C27.2812584,8.26953125 28.6093701,8.80468215 29.5859375,9.875 C30.5546923,10.9375053 31.0390625,12.4101468 31.0390625,14.2929688 L31.0273438,14.9140625 Z M28.3203125,12.7578125 C27.9531232,11.3515555 27.0664133,10.6484375 25.6601562,10.6484375 C25.3398421,10.6484375 25.0390639,10.6972651 24.7578125,10.7949219 C24.4765611,10.8925786 24.2207043,11.0332022 23.9902344,11.2167969 C23.7597645,11.4003915 23.5625008,11.6210925 23.3984375,11.8789062 C23.2343742,12.13672 23.1093754,12.4296859 23.0234375,12.7578125 L28.3203125,12.7578125 Z" id="Combined-Shape"></path>
                <path d="M44.3046875,14.9140625 L36.125,14.9140625 C36.1953129,15.8515672 36.4999973,16.5976535 37.0390625,17.1523438 C37.5781277,17.6992215 38.269527,17.9726562 39.1132812,17.9726562 C39.7695345,17.9726562 40.3124979,17.8164078 40.7421875,17.5039062 C41.1640646,17.1914047 41.6445286,16.6132855 42.1835938,15.7695312 L44.4101562,17.0117188 C44.0664045,17.5976592 43.7031269,18.0996073 43.3203125,18.5175781 C42.9374981,18.935549 42.5273459,19.2792955 42.0898438,19.5488281 C41.6523416,19.8183607 41.17969,20.0156244 40.671875,20.140625 C40.16406,20.2656256 39.6132842,20.328125 39.0195312,20.328125 C37.3163977,20.328125 35.9492239,19.7812555 34.9179688,18.6875 C33.8867136,17.585932 33.3710938,16.1250091 33.3710938,14.3046875 C33.3710938,12.499991 33.8710887,11.0390681 34.8710938,9.921875 C35.8789113,8.82030699 37.2148354,8.26953125 38.8789062,8.26953125 C40.5586021,8.26953125 41.8867139,8.80468215 42.8632812,9.875 C43.8320361,10.9375053 44.3164062,12.4101468 44.3164062,14.2929688 L44.3046875,14.9140625 Z M41.5976562,12.7578125 C41.2304669,11.3515555 40.343757,10.6484375 38.9375,10.6484375 C38.6171859,10.6484375 38.3164077,10.6972651 38.0351562,10.7949219 C37.7539048,10.8925786 37.498048,11.0332022 37.2675781,11.2167969 C37.0371082,11.4003915 36.8398446,11.6210925 36.6757812,11.8789062 C36.5117179,12.13672 36.3867192,12.4296859 36.3007812,12.7578125 L41.5976562,12.7578125 Z" id="Combined-Shape"></path>
            </g>
        </g>
    </g>
</svg>