<?xml version="1.0" encoding="UTF-8"?>
<svg width="27px" height="25px" viewBox="0 0 27 25" version="1.1" xmlns="http://www.w3.org/2000/svg" xmlns:xlink="http://www.w3.org/1999/xlink">
    <!-- Generator: Sketch 43.1 (39012) - http://www.bohemiancoding.com/sketch -->
    <title>ring-bell-clock</title>
    <desc>Created with Sketch.</desc>
    <defs></defs>
    <g id="Page-1" stroke="none" stroke-width="1" fill="none" fill-rule="evenodd">
        <g id="Mobile-Portrait" transform="translate(-224.000000, -538.000000)" fill-rule="nonzero" fill="#FFFFFF">
            <g id="btns" transform="translate(66.000000, 514.000000)">
                <g id="Group" transform="translate(114.000000, 0.000000)">
                    <g id="ring-bell-clock" transform="translate(44.000000, 24.000000)">
                        <path d="M18.7163206,14.3940975 C18.5431235,14.2171464 18.3120353,14.119892 18.0671294,14.119892 L14.3720206,14.1202966 L14.3720206,10.992218 C14.3716235,10.7418002 14.2756941,10.5068363 14.1024971,10.3303706 C13.9288235,10.1535004 13.6982118,10.0561651 13.4533059,10.0561651 C13.2080029,10.0565697 12.9773118,10.153824 12.8045912,10.3303706 C12.6313941,10.5068363 12.5354647,10.7418811 12.5354647,10.991328 L12.5354647,15.054974 C12.5358618,15.5707781 12.9479294,15.9905414 13.4537029,15.9905414 L18.0671294,15.9901369 C18.3120353,15.9901369 18.5426471,15.8928825 18.7163206,15.7159314 C18.8895176,15.5394657 18.9849706,15.3049064 18.9858441,15.0553786 C18.9845735,14.8051226 18.8891206,14.5701586 18.7163206,14.3940975 Z" id="Shape"></path>
                        <path d="M9.34986176,2.96520586 C9.52305882,2.78825472 9.61898824,2.5532908 9.61898824,2.30335845 C9.61898824,2.0573907 9.52091471,1.81619668 9.34986176,1.6428056 C8.31584118,0.587895267 6.94058824,0.00744376061 5.47726765,0.00744376061 C4.01394706,0.00744376061 2.63861471,0.587895267 1.60459412,1.64232014 C0.5697,2.69545045 0,4.09706202 0,5.58807964 C0,7.07861179 0.5697,8.48030428 1.60507059,9.53472915 C1.77874412,9.71030481 2.00935588,9.80755916 2.25299118,9.80755916 C2.49702353,9.80755916 2.72771471,9.71030481 2.90218235,9.53335367 L9.34986176,2.96520586 Z M1.83655588,5.58759417 C1.83655588,4.59700764 2.21495294,3.66580937 2.90297647,2.96520586 C3.59060294,2.26371233 4.50455294,1.87776952 5.47726765,1.87776952 C6.13852941,1.87776952 6.76699412,2.05245517 7.32112941,2.38604892 L2.33494412,7.46544461 C2.00760882,6.90077064 1.83655588,6.26093087 1.83655588,5.58759417 Z" id="Shape"></path>
                        <path d="M25.3546676,1.64232014 C24.3210441,0.587490715 22.9457912,0.00695829796 21.4824706,0.00695829796 C20.0195471,0.00695829796 18.6438176,0.587409805 17.6094,1.64143013 C17.4362029,1.8178958 17.3402735,2.05294063 17.3402735,2.30327754 C17.3402735,2.5540999 17.4361235,2.78914474 17.6094,2.96512495 L24.0571588,9.53416278 C24.2307529,9.7102239 24.4610471,9.80747825 24.7058735,9.80747825 C24.9503824,9.80747825 25.1805971,9.7102239 25.3545882,9.53327276 C26.3894824,8.47884789 26.9591824,7.07804542 26.9591824,5.58751326 C26.9584676,4.09617201 26.3882912,2.69456043 25.3546676,1.64232014 Z M24.6239206,7.46544461 L19.6386088,2.38653438 C20.1927441,2.05253608 20.8212088,1.87776952 21.4829471,1.87776952 C22.4551853,1.87776952 23.3691353,2.26371233 24.0567618,2.96520586 C24.7443882,3.66580937 25.1231824,4.59700764 25.1231824,5.58759417 C25.1227853,6.26044541 24.9517324,6.90077064 24.6239206,7.46544461 Z" id="Shape"></path>
                        <path d="M21.0931941,21.2619376 C22.5194294,19.5135439 23.3789824,17.2695737 23.3789824,14.8240556 C23.3789824,9.26283823 18.9379588,4.7379218 13.4796706,4.7379218 C8.02098529,4.7379218 3.58035882,9.26275732 3.58035882,14.8240556 C3.58035882,17.0970726 4.33103824,19.1900639 5.58105882,20.8786648 L2.99557059,23.512947 C2.67204706,23.8420907 2.67204706,24.3755332 2.99557059,24.7046769 C3.15709412,24.8692487 3.36872647,24.9515346 3.58035882,24.9515346 C3.79199118,24.9515346 4.00362353,24.8692487 4.16514706,24.7046769 L6.68369118,22.1386022 C8.45894118,23.8517999 10.8478853,24.9101894 13.4795912,24.9101894 C15.9437382,24.9101894 18.1949029,23.9824703 19.9290971,22.4594121 L22.1327735,24.7046769 C22.2947735,24.8692487 22.5059294,24.9515346 22.7175618,24.9515346 C22.9291941,24.9515346 23.1413029,24.8692487 23.30235,24.7046769 C23.6258735,24.3750478 23.6258735,23.8420907 23.30235,23.512947 L21.0931941,21.2619376 Z M5.41643824,14.8240556 C5.41643824,10.29388 9.03380294,6.60873302 13.4795912,6.60873302 C17.9253794,6.60873302 21.5423471,10.2939609 21.5423471,14.8240556 C21.5423471,16.9355754 20.7497382,18.8582502 19.4596147,20.3148809 C19.3568559,20.3558216 19.2600529,20.4173944 19.1771471,20.5019458 C19.09035,20.5903809 19.0311882,20.6942699 18.9910059,20.8038227 C17.5479353,22.1856921 15.6116382,23.0389736 13.4796706,23.0389736 C9.03340588,23.0389736 5.41643824,19.3537458 5.41643824,14.8240556 Z" id="Shape"></path>
                    </g>
                </g>
            </g>
        </g>
    </g>
</svg>