<?xml version="1.0" encoding="UTF-8"?>
<svg width="40px" height="31px" viewBox="0 0 40 31" version="1.1" xmlns="http://www.w3.org/2000/svg" xmlns:xlink="http://www.w3.org/1999/xlink">
    <!-- Generator: Sketch 43.1 (39012) - http://www.bohemiancoding.com/sketch -->
    <title>sleep</title>
    <desc>Created with Sketch.</desc>
    <defs></defs>
    <g id="Page-1" stroke="none" stroke-width="1" fill="none" fill-rule="evenodd">
        <g id="Mobile-Portrait" transform="translate(-103.000000, -535.000000)" fill-rule="nonzero" fill="#FFFFFF">
            <g id="btns" transform="translate(66.000000, 514.000000)">
                <g id="Group-2">
                    <g id="sleep" transform="translate(37.000000, 21.000000)">
                        <path d="M26.4225532,26.4547297 C23.4804255,29.2526892 19.6268085,30.7737838 15.6123404,30.7737838 C14.9302128,30.7737838 14.2434043,30.7297973 13.5557447,30.6405676 C5.03446809,29.5371351 -0.986382979,21.8143649 0.134042553,13.4250946 C1.25531915,5.03624324 9.09787234,-0.891878378 17.6217021,0.211972973 C17.8408511,0.240459459 18.0574468,0.275648649 18.2731915,0.312513514 C18.5787234,0.364878378 18.8285106,0.581878378 18.9195745,0.873864865 C19.0106383,1.16585135 18.927234,1.48339189 18.7042553,1.69536486 C16.7740426,3.53064865 15.4582979,5.80537838 14.8442553,8.33564865 L13.1531915,8.33564865 C13.6821277,5.88581081 14.792766,3.63956757 16.4229787,1.72762162 C16.1404255,1.71086486 15.8591489,1.70248649 15.5791489,1.70248649 C8.69446809,1.70248649 2.69021277,6.73914865 1.76851064,13.6366486 C0.765957447,21.1390676 6.15021277,28.0453649 13.7710638,29.0323378 C17.4791489,29.5115811 21.1582979,28.525027 24.0829787,26.3047568 C21.5153191,25.5846351 19.2591489,24.2541486 17.4514894,22.5043243 L19.9710638,22.5043243 C21.6859574,23.7799324 23.7268085,24.6839595 25.9914894,25.0722973 C26.2970213,25.1246622 26.5468085,25.3416622 26.6378723,25.6336486 C26.7289362,25.9252162 26.6459574,26.2423378 26.4225532,26.4547297 Z M30.2238298,19.9397027 C30.2238298,19.4918784 29.8548936,19.1282568 29.3995745,19.1282568 L25.4795745,19.1282568 L29.9276596,14.7065676 C30.1612766,14.4740676 30.2306383,14.125527 30.1025532,13.8234865 C29.9744681,13.5214459 29.6744681,13.3245541 29.3421277,13.3245541 L23.5038298,13.3245541 C23.0489362,13.3245541 22.6795745,13.6877568 22.6795745,14.136 C22.6795745,14.5842432 23.0485106,14.9474459 23.5038298,14.9474459 L27.366383,14.9474459 L22.9182979,19.3691351 C22.6846809,19.6020541 22.6153191,19.9501757 22.7434043,20.2522162 C22.8714894,20.5542568 23.1714894,20.7511486 23.5038298,20.7511486 L29.3995745,20.7511486 C29.8544681,20.7511486 30.2238298,20.3879459 30.2238298,19.9397027 Z M39.8514894,19.9397027 C39.8514894,19.4918784 39.4825532,19.1282568 39.027234,19.1282568 L35.1076596,19.1282568 L39.5557447,14.7065676 C39.7897872,14.4740676 39.8587234,14.125527 39.7306383,13.8234865 C39.6025532,13.5214459 39.3025532,13.3245541 38.9702128,13.3245541 L33.1319149,13.3245541 C32.6770213,13.3245541 32.3076596,13.6877568 32.3076596,14.136 C32.3076596,14.5842432 32.6765957,14.9474459 33.1319149,14.9474459 L36.9940426,14.9474459 L32.546383,19.3691351 C32.312766,19.6020541 32.2434043,19.9501757 32.3714894,20.2522162 C32.4995745,20.5542568 32.7995745,20.7511486 33.1319149,20.7511486 L39.027234,20.7511486 C39.4825532,20.7511486 39.8514894,20.3879459 39.8514894,19.9397027 Z M20.7651064,19.9397027 C20.7651064,19.4918784 20.3961702,19.1282568 19.9408511,19.1282568 L12.6680851,19.1282568 L20.4370213,11.4050676 C20.6710638,11.1725676 20.74,10.824027 20.6119149,10.5219865 C20.4838298,10.2199459 20.1838298,10.0230541 19.8514894,10.0230541 L10.6923404,10.0230541 C10.2370213,10.0230541 9.86808511,10.3862568 9.86808511,10.8340811 C9.86808511,11.2823243 10.2370213,11.645527 10.6923404,11.645527 L17.8757447,11.645527 L10.1068085,19.3691351 C9.87276596,19.6020541 9.80382979,19.9501757 9.93191489,20.2522162 C10.06,20.5542568 10.36,20.7511486 10.6923404,20.7511486 L19.9412766,20.7511486 C20.3961702,20.7511486 20.7651064,20.3879459 20.7651064,19.9397027 Z" id="Shape"></path>
                    </g>
                </g>
            </g>
        </g>
    </g>
</svg>