<?xml version="1.0" standalone="no"?>
<!DOCTYPE svg PUBLIC "-//W3C//DTD SVG 20010904//EN"
 "http://www.w3.org/TR/2001/REC-SVG-20010904/DTD/svg10.dtd">
<svg version="1.0" xmlns="http://www.w3.org/2000/svg"
 width="1024.000000pt" height="1024.000000pt" viewBox="0 0 1024.000000 1024.000000"
 preserveAspectRatio="xMidYMid meet">
<metadata>
Created by potrace 1.11, written by Peter Selinger 2001-2013
</metadata>
<g transform="translate(0.000000,1024.000000) scale(0.100000,-0.100000)"
fill="#000000" stroke="none">
<path d="M4805 9889 c-721 -44 -1461 -269 -2095 -639 -685 -400 -1270 -976
-1684 -1658 -657 -1083 -851 -2391 -540 -3637 73 -290 218 -684 351 -950 474
-946 1259 -1720 2205 -2174 844 -406 1758 -552 2698 -430 1354 175 2579 942
3344 2094 244 368 410 707 546 1115 254 761 314 1533 180 2327 -242 1436
-1149 2696 -2445 3394 -779 420 -1659 612 -2560 558z m-1912 -1191 c23 -28 22
-83 -3 -108 -41 -41 -122 -17 -135 40 -17 77 87 128 138 68z m3599 -435 c25
-22 30 -60 14 -92 -17 -32 -34 -41 -77 -41 -56 0 -88 66 -58 121 21 40 83 46
121 12z m-909 -332 c397 -80 731 -300 994 -658 88 -119 157 -233 147 -242 -9
-8 -601 -359 -641 -379 -20 -11 -26 -4 -99 106 -85 130 -221 275 -294 313
-151 79 -253 102 -450 102 -168 -1 -286 -26 -406 -86 -245 -123 -384 -334
-384 -582 0 -187 86 -338 271 -475 111 -82 213 -131 624 -300 502 -206 650
-280 877 -440 112 -79 290 -248 362 -344 199 -266 286 -550 286 -932 1 -455
-122 -810 -391 -1130 -152 -182 -337 -326 -554 -434 -251 -124 -444 -169 -756
-177 -280 -8 -468 18 -688 93 -555 190 -937 653 -1085 1314 -14 63 -27 135
-28 159 l-3 44 355 78 c195 43 383 85 416 93 l62 13 16 -111 c38 -247 90 -413
166 -531 144 -220 361 -345 653 -376 602 -64 1065 407 999 1015 -22 204 -89
345 -231 487 -158 158 -314 246 -805 450 -459 191 -629 279 -825 426 -405 305
-604 728 -562 1196 37 398 200 697 526 966 233 193 542 320 870 360 138 17
454 7 578 -18z m-3785 -1227 c51 -58 12 -144 -67 -144 -32 0 -44 6 -65 31 -29
34 -32 62 -12 98 31 55 102 63 144 15z m7001 -1118 c60 -32 84 -124 47 -181
-23 -35 -74 -65 -112 -65 -70 0 -141 82 -129 149 17 92 111 139 194 97z
m-6100 -1200 c67 -35 65 -143 -4 -174 -91 -41 -179 51 -131 137 26 47 84 63
135 37z m5274 -618 c33 -17 46 -39 47 -79 0 -91 -116 -121 -163 -41 -44 76 38
162 116 120z m-4299 -2472 c18 -7 43 -26 55 -42 34 -43 25 -117 -18 -156 -57
-51 -153 -32 -186 38 -30 64 3 144 68 163 44 13 44 13 81 -3z"/>
</g>
</svg>
